<svg xmlns="http://www.w3.org/2000/svg" width="85.11" height="85.11" viewBox="0 0 85.11 85.11"><defs><style>.a{fill:#50407e;}</style></defs><path class="a" d="M93.11,50.555A42.555,42.555,0,1,1,50.555,8,42.548,42.548,0,0,1,93.11,50.555ZM68.469,45.6,56.046,58.551V27.218A4.108,4.108,0,0,0,51.928,23.1H49.182a4.108,4.108,0,0,0-4.118,4.118V58.551L32.641,45.6a4.123,4.123,0,0,0-5.886-.069l-1.87,1.888a4.1,4.1,0,0,0,0,5.817L47.638,76a4.1,4.1,0,0,0,5.817,0l22.77-22.77a4.1,4.1,0,0,0,0-5.817l-1.87-1.888a4.123,4.123,0,0,0-5.886.069Z" transform="translate(-8 -8)"/></svg>