<svg xmlns="http://www.w3.org/2000/svg" xmlns:xlink="http://www.w3.org/1999/xlink" width="2173" height="5099" viewBox="0 0 2173 5099"><defs><style>.a{fill:none;}.b{opacity:0.5;clip-path:url(#a);}.c{fill:#d5f7e8;}</style><clipPath id="a"><rect class="a" width="2173" height="5099"/></clipPath></defs><g class="b"><g transform="translate(-508 -1822)"><circle class="c" cx="116.5" cy="116.5" r="116.5" transform="translate(574 2820)"/><circle class="c" cx="116.5" cy="116.5" r="116.5" transform="translate(866 2508)"/><circle class="c" cx="116.5" cy="116.5" r="116.5" transform="translate(508 2208)"/><circle class="c" cx="116.5" cy="116.5" r="116.5" transform="translate(933 1822)"/></g><g transform="translate(170 -1822)"><circle class="c" cx="116.5" cy="116.5" r="116.5" transform="translate(574 2820)"/><circle class="c" cx="116.5" cy="116.5" r="116.5" transform="translate(866 2508)"/><circle class="c" cx="116.5" cy="116.5" r="116.5" transform="translate(508 2208)"/><circle class="c" cx="116.5" cy="116.5" r="116.5" transform="translate(933 1822)"/></g><g transform="translate(848 -1822)"><circle class="c" cx="116.5" cy="116.5" r="116.5" transform="translate(574 2820)"/><circle class="c" cx="116.5" cy="116.5" r="116.5" transform="translate(866 2508)"/><circle class="c" cx="116.5" cy="116.5" r="116.5" transform="translate(508 2208)"/><circle class="c" cx="116.5" cy="116.5" r="116.5" transform="translate(933 1822)"/></g><g transform="translate(1526 -1822)"><circle class="c" cx="116.5" cy="116.5" r="116.5" transform="translate(574 2820)"/><circle class="c" cx="116.5" cy="116.5" r="116.5" transform="translate(866 2508)"/><circle class="c" cx="116.5" cy="116.5" r="116.5" transform="translate(508 2208)"/><circle class="c" cx="116.5" cy="116.5" r="116.5" transform="translate(933 1822)"/></g><g transform="translate(-508 -571)"><circle class="c" cx="116.5" cy="116.5" r="116.5" transform="translate(574 2820)"/><circle class="c" cx="116.5" cy="116.5" r="116.5" transform="translate(866 2508)"/><circle class="c" cx="116.5" cy="116.5" r="116.5" transform="translate(508 2208)"/><circle class="c" cx="116.5" cy="116.5" r="116.5" transform="translate(933 1822)"/></g><g transform="translate(170 -571)"><circle class="c" cx="116.5" cy="116.5" r="116.5" transform="translate(574 2820)"/><circle class="c" cx="116.5" cy="116.5" r="116.5" transform="translate(866 2508)"/><circle class="c" cx="116.5" cy="116.5" r="116.5" transform="translate(508 2208)"/><circle class="c" cx="116.5" cy="116.5" r="116.5" transform="translate(933 1822)"/></g><g transform="translate(848 -571)"><circle class="c" cx="116.5" cy="116.5" r="116.5" transform="translate(574 2820)"/><circle class="c" cx="116.5" cy="116.5" r="116.5" transform="translate(866 2508)"/><circle class="c" cx="116.5" cy="116.5" r="116.5" transform="translate(508 2208)"/><circle class="c" cx="116.5" cy="116.5" r="116.5" transform="translate(933 1822)"/></g><g transform="translate(1526 -571)"><circle class="c" cx="116.5" cy="116.5" r="116.5" transform="translate(574 2820)"/><circle class="c" cx="116.5" cy="116.5" r="116.5" transform="translate(866 2508)"/><circle class="c" cx="116.5" cy="116.5" r="116.5" transform="translate(508 2208)"/><circle class="c" cx="116.5" cy="116.5" r="116.5" transform="translate(933 1822)"/></g><g transform="translate(-508 680)"><circle class="c" cx="116.5" cy="116.5" r="116.5" transform="translate(574 2820)"/><circle class="c" cx="116.5" cy="116.5" r="116.5" transform="translate(866 2508)"/><circle class="c" cx="116.5" cy="116.5" r="116.5" transform="translate(508 2208)"/><circle class="c" cx="116.5" cy="116.5" r="116.5" transform="translate(933 1822)"/></g><g transform="translate(170 680)"><circle class="c" cx="116.5" cy="116.5" r="116.5" transform="translate(574 2820)"/><circle class="c" cx="116.5" cy="116.5" r="116.5" transform="translate(866 2508)"/><circle class="c" cx="116.5" cy="116.5" r="116.5" transform="translate(508 2208)"/><circle class="c" cx="116.5" cy="116.5" r="116.5" transform="translate(933 1822)"/></g><g transform="translate(848 680)"><circle class="c" cx="116.5" cy="116.5" r="116.5" transform="translate(574 2820)"/><circle class="c" cx="116.5" cy="116.5" r="116.5" transform="translate(866 2508)"/><circle class="c" cx="116.5" cy="116.5" r="116.5" transform="translate(508 2208)"/><circle class="c" cx="116.5" cy="116.5" r="116.5" transform="translate(933 1822)"/></g><g transform="translate(1526 680)"><circle class="c" cx="116.5" cy="116.5" r="116.5" transform="translate(574 2820)"/><circle class="c" cx="116.5" cy="116.5" r="116.5" transform="translate(866 2508)"/><circle class="c" cx="116.5" cy="116.5" r="116.5" transform="translate(508 2208)"/><circle class="c" cx="116.5" cy="116.5" r="116.5" transform="translate(933 1822)"/></g><g transform="translate(-508 1931)"><circle class="c" cx="116.5" cy="116.5" r="116.5" transform="translate(574 2820)"/><circle class="c" cx="116.5" cy="116.5" r="116.5" transform="translate(866 2508)"/><circle class="c" cx="116.5" cy="116.5" r="116.5" transform="translate(508 2208)"/><circle class="c" cx="116.5" cy="116.5" r="116.5" transform="translate(933 1822)"/></g><g transform="translate(170 1931)"><circle class="c" cx="116.5" cy="116.5" r="116.5" transform="translate(574 2820)"/><circle class="c" cx="116.5" cy="116.5" r="116.5" transform="translate(866 2508)"/><circle class="c" cx="116.5" cy="116.5" r="116.5" transform="translate(508 2208)"/><circle class="c" cx="116.5" cy="116.5" r="116.5" transform="translate(933 1822)"/></g><g transform="translate(848 1931)"><circle class="c" cx="116.5" cy="116.5" r="116.5" transform="translate(574 2820)"/><circle class="c" cx="116.5" cy="116.5" r="116.5" transform="translate(866 2508)"/><circle class="c" cx="116.5" cy="116.5" r="116.5" transform="translate(508 2208)"/><circle class="c" cx="116.5" cy="116.5" r="116.5" transform="translate(933 1822)"/></g><g transform="translate(1526 1931)"><circle class="c" cx="116.5" cy="116.5" r="116.5" transform="translate(574 2820)"/><circle class="c" cx="116.5" cy="116.5" r="116.5" transform="translate(866 2508)"/><circle class="c" cx="116.5" cy="116.5" r="116.5" transform="translate(508 2208)"/><circle class="c" cx="116.5" cy="116.5" r="116.5" transform="translate(933 1822)"/></g><g transform="translate(-508 3182)"><circle class="c" cx="116.5" cy="116.5" r="116.5" transform="translate(574 2820)"/><circle class="c" cx="116.5" cy="116.5" r="116.5" transform="translate(866 2508)"/><circle class="c" cx="116.5" cy="116.5" r="116.5" transform="translate(508 2208)"/><circle class="c" cx="116.5" cy="116.5" r="116.5" transform="translate(933 1822)"/></g><g transform="translate(170 3182)"><circle class="c" cx="116.5" cy="116.5" r="116.5" transform="translate(574 2820)"/><circle class="c" cx="116.5" cy="116.5" r="116.5" transform="translate(866 2508)"/><circle class="c" cx="116.5" cy="116.5" r="116.5" transform="translate(508 2208)"/><circle class="c" cx="116.5" cy="116.5" r="116.5" transform="translate(933 1822)"/></g><g transform="translate(848 3182)"><circle class="c" cx="116.5" cy="116.5" r="116.5" transform="translate(574 2820)"/><circle class="c" cx="116.5" cy="116.5" r="116.5" transform="translate(866 2508)"/><circle class="c" cx="116.5" cy="116.5" r="116.5" transform="translate(508 2208)"/><circle class="c" cx="116.5" cy="116.5" r="116.5" transform="translate(933 1822)"/></g><g transform="translate(1526 3182)"><circle class="c" cx="116.5" cy="116.5" r="116.5" transform="translate(574 2820)"/><circle class="c" cx="116.5" cy="116.5" r="116.5" transform="translate(866 2508)"/><circle class="c" cx="116.5" cy="116.5" r="116.5" transform="translate(508 2208)"/><circle class="c" cx="116.5" cy="116.5" r="116.5" transform="translate(933 1822)"/></g></g></svg>