<svg xmlns="http://www.w3.org/2000/svg" width="176.966" height="177.104" viewBox="0 0 176.966 177.104"><defs><style>.a{fill:#78a5b3;stroke:#f5fcfd;stroke-width:10px;}</style></defs><path class="a" d="M56.163,73.954a7.838,7.838,0,0,0-9.2,7.762V98.155a7.837,7.837,0,0,0,5.447,7.175,15.655,15.655,0,1,1-21.1,14.677V39.122a7.809,7.809,0,0,0-7.828-7.828H7.828A7.809,7.809,0,0,0,0,39.122v80.885A46.976,46.976,0,1,0,56.163,73.954Zm12-73.971A5.25,5.25,0,0,0,62.621,5.2V15.508a5.165,5.165,0,0,0,4.892,5.186c42.2,2.283,76.123,36.529,78.569,78.765a5.21,5.21,0,0,0,5.186,4.892h10.469a5.249,5.249,0,0,0,5.218-5.545A104.618,104.618,0,0,0,68.165-.016Zm.1,31.31a5.262,5.262,0,0,0-5.642,5.251V47.014A5.2,5.2,0,0,0,67.448,52.2c25.048,2.055,45.009,22.243,47.259,47.357a5.241,5.241,0,0,0,5.186,4.794h10.5a5.281,5.281,0,0,0,5.251-5.642A73.382,73.382,0,0,0,68.263,31.294Z" transform="translate(5 5.026)"/></svg>