<svg xmlns="http://www.w3.org/2000/svg" width="146.298" height="167.197" viewBox="0 0 146.298 167.197"><defs><style>.a{fill:#78a5b3;}</style></defs><path class="a" d="M146.3,117.561V7.837A7.819,7.819,0,0,0,138.46,0H31.35A31.358,31.358,0,0,0,0,31.35v104.5A31.358,31.358,0,0,0,31.35,167.2H138.46a7.819,7.819,0,0,0,7.837-7.837v-5.225a7.9,7.9,0,0,0-2.906-6.107c-1.372-5.029-1.372-19.365,0-24.394a7.782,7.782,0,0,0,2.906-6.074ZM41.8,43.759A1.965,1.965,0,0,1,43.759,41.8h69.23a1.965,1.965,0,0,1,1.959,1.959V50.29a1.965,1.965,0,0,1-1.959,1.959H43.759A1.965,1.965,0,0,1,41.8,50.29Zm0,20.9A1.965,1.965,0,0,1,43.759,62.7h69.23a1.965,1.965,0,0,1,1.959,1.959V71.19a1.965,1.965,0,0,1-1.959,1.959H43.759A1.965,1.965,0,0,1,41.8,71.19Zm82.75,81.639H31.35a10.45,10.45,0,0,1,0-20.9h93.2A117.564,117.564,0,0,0,124.549,146.3Z"/></svg>