<svg xmlns="http://www.w3.org/2000/svg" width="146.422" height="167.34" viewBox="0 0 146.422 167.34"><defs><style>.a{fill:#ffdee7;}</style></defs><path class="a" d="M3.922,62.752H142.5a3.934,3.934,0,0,1,3.922,3.922v84.977a15.692,15.692,0,0,1-15.688,15.688H15.688A15.692,15.692,0,0,1,0,151.652V66.674A3.934,3.934,0,0,1,3.922,62.752Zm142.5-14.381V36.606a15.692,15.692,0,0,0-15.688-15.688H115.046v-17A3.934,3.934,0,0,0,111.124,0H98.051a3.934,3.934,0,0,0-3.922,3.922v17H52.294v-17A3.934,3.934,0,0,0,48.372,0H35.3a3.934,3.934,0,0,0-3.922,3.922v17H15.688A15.692,15.692,0,0,0,0,36.606V48.372a3.934,3.934,0,0,0,3.922,3.922H142.5A3.934,3.934,0,0,0,146.422,48.372Z"/></svg>