<svg xmlns="http://www.w3.org/2000/svg" width="350.41" height="242.007" viewBox="0 0 350.41 242.007"><defs><style>.a{font-size:22px;font-family:Muli-ExtraLight, Muli;font-weight:200;}.b{letter-spacing:-0.01em;}.c{stroke:#000;stroke-miterlimit:10;stroke-width:0.15px;}</style></defs><g transform="translate(0 0)"><text class="a" transform="translate(158.585 106.071)"><tspan x="0" y="0">die</tspan><tspan class="b" y="0">r</tspan><tspan y="0">en in de natuur</tspan></text><path d="M153.464,14.775A75.735,75.735,0,0,1,138.5,33c-5.916,5.215-13.124,8.77-18.851,14.228-5.027,4.8-8.644,10.844-12.1,16.813A157.684,157.684,0,0,1,94.9,82.89a52.19,52.19,0,0,0-9.686,18.034,137.011,137.011,0,0,1-8.77,23.519c-7.522,14.964-15.619,30.009-25.2,43.77-4.883,7.02-10.772,13.465-14.138,21.373A48.9,48.9,0,0,0,33.42,213.41l1.239-1.6c-16.634,3.591-29,28.994-13.3,41.032,6.284,4.794,15.063,4.084,19.82-2.433,5.709-7.828-.215-15.215-6.436-20.242l-.341,2.648c12.935-5.916,26.418,17.316,39.174,5.287,1.58-1.49-.808-3.869-2.379-2.379-6.454,6.077-15.583-.745-21.679-3.914-5.386-2.81-11.023-4.551-16.813-1.9a1.688,1.688,0,0,0-.341,2.639c5.054,4.084,11.2,10.431,5.386,16.741-5.287,5.754-13.591,3.384-17.594-2.549-7.935-11.831,2.837-28.977,15.4-31.67a1.679,1.679,0,0,0,1.23-1.616,45.906,45.906,0,0,1,4.165-24.237c3.276-6.8,8.411-12.486,12.72-18.626,9.363-13.3,17.109-27.827,24.578-42.28a113.554,113.554,0,0,0,8.537-20.521c2.352-8.079,4.758-15.17,10.018-21.93A150.189,150.189,0,0,0,108.68,68.805c3.591-6.14,6.975-12.5,11.876-17.711,5.889-6.284,13.878-10.054,20.3-15.727a78.914,78.914,0,0,0,15.494-18.9,1.684,1.684,0,0,0-2.908-1.7Z" transform="translate(-14.126 -13.944)"/><path d="M61.623,195.3c4.91,0,10.287.215,12.477,5.386,1.652,3.9,1.4,8.923,1.427,13.1a106.867,106.867,0,0,1-.817,14.066c-.637,5.054-2.19,9.928-2.908,14.946-2.585,18.169,29.5,9.946,31.041,25.691a1.724,1.724,0,0,0,1.239,1.625c3.806.583,7.63,1.077,11.481,1.4,2.513.206,5.718.844,7.953-.736,3.707-2.621,3.447-10.3,1.948-14-4.255-10.548-17.442-18.366-27.827-21.373-2.145-.619-3.591-.386-4.767-2.37s-.09-4.138.485-6.391l2.944-11.67c1.8-6.984,4.713-14.749,3.645-22.073-2-13.68-17.172-14.91-28.16-14.363-2.163.108-2.172,3.474,0,3.366,5.969-.278,12.567-.7,17.953,2.244,6.723,3.636,7.756,10.278,6.427,17.244-1.131,5.951-2.9,11.831-4.39,17.711-.844,3.321-1.706,6.634-2.522,9.964-.413,1.643-1.041,3.411-.664,5.126.844,3.851,5.736,3.725,8.8,4.659a46.04,46.04,0,0,1,14.551,7.531c4.381,3.366,10.1,8.321,10.871,14.012.206,1.481.386,4.1-.278,5.521-1.481,3.133-4.542,2.433-6.984,2.235-3.591-.3-7.074-.736-10.592-1.284l1.239,1.625c-.745-7.558-7.334-11.67-14.084-13.6-4.758-1.391-10.188-2.02-14.156-5.242-5.26-4.264-1.149-13.142-.3-18.851,1.373-9.174,2.334-19.578.359-28.725-1.8-8.357-8.788-10.126-16.409-10.117a1.684,1.684,0,0,0,0,3.366Z" transform="translate(-18.818 -30.777)"/><path d="M131.345,212.818c-1.445,11.67-8.9,21.158-16.068,30.018a1.7,1.7,0,0,0,1.634,2.819c4.686-1.068,8.9,1.05,13.4,1.939a39.8,39.8,0,0,0,10.476.6l-1.625-1.239.305,1.445,3.241-.9c-2.926-11.167-1.418-23.438-7.765-33.564-1.149-1.8-4.057-.144-2.908,1.7,6.14,9.793,4.587,21.93,7.433,32.765.548,2.11,3.671,1.212,3.241-.9l-.3-1.445a1.7,1.7,0,0,0-1.625-1.23,43.527,43.527,0,0,1-14.363-1.724c-3.591-.943-6.741-1.535-10.386-.7l1.634,2.81c7.819-9.659,15.485-19.695,17.056-32.4.26-2.145-3.106-2.118-3.366,0Z" transform="translate(-24.429 -34.133)"/><path d="M129.463,234.782a63.294,63.294,0,0,0,9.291-.467c2.118-.269,2.145-3.591,0-3.366a63.291,63.291,0,0,1-9.309.467c-2.163-.054-2.163,3.312,0,3.366Z" transform="translate(-25.761 -36.151)"/><path d="M123.3,180.558c5.045,10.422,7.262,21.49,9.7,32.729.458,2.118,3.7,1.221,3.241-.9-2.5-11.535-4.856-22.836-10.045-33.528-.9-1.948-3.842-.251-2.9,1.7Z" transform="translate(-25.279 -30.733)"/><path d="M142.754,243.172c-1.086,10.359,4.084,17.576,13.95,20.332,3.357.943,10.395,4.425,13.2.835,2.567-3.276,1.266-9.488.1-13.052-1.732-5.314-4.8-10.027-7.424-14.919a82.414,82.414,0,0,1-7.8-20.853c-3.2-14.219-2.047-29.21-1.975-43.68a1.684,1.684,0,0,0-3.366,0c-.1,21.239-1.185,42.136,8.034,61.876,1.8,3.752,16.454,27.3,8.079,28.626-1.939.305-6.1-1.553-7.971-2.083-2.63-.736-5.386-1.562-7.486-3.465-3.752-3.465-4.488-8.788-3.986-13.618.233-2.154-3.133-2.136-3.366,0Z" transform="translate(-27.275 -29.936)"/><path d="M171.237,236.36c4.883.664,10.772,2.388,15.682,2.083,3.276-.206,5.2-2.89,5.592-5.987a9.973,9.973,0,0,0-2.118-7.37c-3.061-3.851-7.469-2.19-10.925-4.946-3.8-3.025-6.068-9.129-7.415-13.573a83.888,83.888,0,0,1-2.872-16.409c-1.1-11.526-2.065-23.169-1.724-34.748.359-12.316,3.232-23.51,6.966-35.152a91.456,91.456,0,0,0,3.887-15.512,43.359,43.359,0,0,0,.44-6.732c-.072-3.483-1.957-8.339,3.034-9.793,2.415-.7,5.889-.189,8.384-.4s4.758-.494,7.118-.844c5.736-.9,11.957-1.9,17.361-4.093,2.864-1.167,3.734-2.343,4.811-5.009,1.427-3.537,5.5-4.039,5.224-8.411-.206-3.3-2.487-5.5-5.332-6.8-2.325-1.068-4.91-1.391-7.325-2.208a26.3,26.3,0,0,1-8.662-4.964c-7.944-6.831-9.74-20.951-21.58-22.908l.736,2.81a20.152,20.152,0,0,0,5.709-9.874,1.688,1.688,0,0,0-2.065-2.065,39,39,0,0,0-9.8,4.416l2.531,1.481a15.377,15.377,0,0,0-6.472-14.228c-1.741-1.293-3.42,1.634-1.7,2.908a12.029,12.029,0,0,1,4.8,11.32,1.7,1.7,0,0,0,2.531,1.454,36.445,36.445,0,0,1,8.977-4.075l-2.065-2.065A16.759,16.759,0,0,1,180.124,33a1.7,1.7,0,0,0,.745,2.819c10.206,1.688,12.388,14.767,19.084,21.14a30.063,30.063,0,0,0,8.851,5.844c2.953,1.266,11.822,2.109,12.343,6.032.44,3.259-3.079,3.276-4.345,5.117-.548.808-.431,1.625-.709,2.531-1.625,5.206-11.777,5.871-16.409,6.706a106.733,106.733,0,0,1-15.395,1.625c-3.052.1-6.553-.287-8.366,2.693-1.589,2.639-.79,6.041-.619,8.914a51.33,51.33,0,0,1-2.253,16.732c-2.639,9.479-6.284,18.564-7.783,28.348a146.762,146.762,0,0,0-.9,29.973,261.484,261.484,0,0,0,2.54,27.648c1.32,8.079,4.084,18.9,11.014,24.12,3.259,2.451,8.079.736,10.359,4.7a6.814,6.814,0,0,1,.9,3.025c-.126,3.591-3.788,3.591-6.571,3.591-3.42-.045-7.136-.969-10.521-1.427-2.118-.287-3.043,2.953-.9,3.241Z" transform="translate(-29.465 -14.031)"/><path d="M174.816,238.08a32.892,32.892,0,0,1,5.314-.251h.557c.359.09.377,0,.063-.206-.3-.817-.18.745-.18.9a15.864,15.864,0,0,1-.269,2.98c-.395,2.11,2.855,3.025,3.241.9s1.248-5.96-.8-7.415c-.952-.673-2.343-.574-3.456-.583a33.861,33.861,0,0,0-4.488.269c-2.118.269-2.145,3.644,0,3.366Z" transform="translate(-30.405 -36.505)"/><path d="M191.04,56.4a2.63,2.63,0,0,1,.781-.2h.3c.332.117.332.081,0-.117l-.431-.736c-.063-.377,0,.251,0,.305a3.169,3.169,0,0,0,.251.628,2.5,2.5,0,0,1,.269.727,6.57,6.57,0,0,0,.574,1.993,1.7,1.7,0,0,0,2.3.6,1.715,1.715,0,0,0,.6-2.307,8.016,8.016,0,0,1-.3-1.508,4.578,4.578,0,0,0-.413-1v.26l-.054-.449a1.984,1.984,0,0,0-.332-.727c-.9-1.275-3.142-1.23-4.488-.727a1.724,1.724,0,0,0-1.1,2.074,1.688,1.688,0,0,0,2.065,1.176Z" transform="translate(-32.015 -17.923)"/><path d="M219.013,69.345c-2.522,1.8-4.1,3.8-3.671,7.038.386,2.98,2.37,5.305,5.458,5.458,2.163.1,2.163-3.267,0-3.366-1.571-.081-2.19-1.741-2.19-3.106,0-1.535.952-2.289,2.11-3.115,1.741-1.248.063-4.165-1.706-2.908Z" transform="translate(-34.711 -19.582)"/><path d="M194.235,85.935a36.131,36.131,0,0,1,13.178,1.8c3.348,1.032,6.122,1.876,9.614,1.355,2.136-.323,1.221-3.591-.9-3.25-4.156.628-8.573-1.8-12.567-2.612a33.528,33.528,0,0,0-9.327-.682c-2.154.144-2.172,3.51,0,3.366Z" transform="translate(-32.392 -20.957)"/><path d="M159.914,28.684a82.784,82.784,0,0,1-1.6,13.788c-.422,2.118,2.819,3.025,3.25.9a88.867,88.867,0,0,0,1.715-14.686C163.352,26.512,159.985,26.512,159.914,28.684Z" transform="translate(-28.878 -15.286)"/><path d="M177.281,28.394,171.967,36.3c-1.212,1.8,1.706,3.492,2.908,1.7l5.3-7.9c1.212-1.8-1.706-3.492-2.908-1.706Z" transform="translate(-30.249 -15.345)"/><path d="M203.292,133.35a56.44,56.44,0,0,0,.153,7.3,20.466,20.466,0,0,0,1.8,6.921,18.052,18.052,0,0,0,4.336,5.61,16.634,16.634,0,0,0,6.284,3.214,23.16,23.16,0,0,0,7.127.718,42.292,42.292,0,0,0,7.181-.9c2.379-.512,4.7-1.185,7.047-1.9s4.758-1.355,7.181-1.876a98.967,98.967,0,0,1,29.452-1.8,112.833,112.833,0,0,1,14.614,2.226,147.437,147.437,0,0,1,14.246,3.95,74.876,74.876,0,0,1,13.564,5.934,146.924,146.924,0,0,1,12.253,8.258,127.531,127.531,0,0,0,12.19,8.079,32.7,32.7,0,0,0,6.616,2.881,17.666,17.666,0,0,0,7.038.682,16.221,16.221,0,0,0,6.643-2.334,11.794,11.794,0,0,0,2.693-2.271,9.691,9.691,0,0,0,1-1.427,4.165,4.165,0,0,0,.521-1.526,6.131,6.131,0,0,0-.745-3.258,31.832,31.832,0,0,0-1.8-3.133,28.65,28.65,0,0,1-1.84-3.25,8.2,8.2,0,0,1-.9-3.743,2.164,2.164,0,0,1,.206-1.041,4.669,4.669,0,0,1,.485-.9,16.066,16.066,0,0,1,1.158-1.49c.817-.943,1.679-1.8,2.549-2.693,1.75-1.732,3.591-3.393,5.386-5.027l11.113-9.659-10.772,10.036c-1.8,1.688-3.591,3.366-5.26,5.126-.844.9-1.688,1.8-2.451,2.693a15.637,15.637,0,0,0-1.068,1.436,5.663,5.663,0,0,0-.413.745,1.454,1.454,0,0,0-.117.745,7.307,7.307,0,0,0,.9,3.339,32.435,32.435,0,0,0,1.8,3.115,35.209,35.209,0,0,1,1.9,3.214,7.1,7.1,0,0,1,.9,3.806,5.189,5.189,0,0,1-.628,1.939,10.185,10.185,0,0,1-1.1,1.589,13.078,13.078,0,0,1-2.881,2.522,17.415,17.415,0,0,1-7.1,2.567,18.285,18.285,0,0,1-7.513-.709,34.03,34.03,0,0,1-6.858-2.98,128.371,128.371,0,0,1-12.316-8.169,144.513,144.513,0,0,0-12.145-8.187,73.742,73.742,0,0,0-13.357-5.844,123.741,123.741,0,0,0-28.573-6.113,97.683,97.683,0,0,0-29.093,1.75c-2.379.512-4.731,1.14-7.065,1.858s-4.731,1.409-7.181,1.921a43.489,43.489,0,0,1-7.4.9,24.022,24.022,0,0,1-7.451-.808,17.693,17.693,0,0,1-6.679-3.474,18.9,18.9,0,0,1-4.56-5.978,21.49,21.49,0,0,1-1.84-7.262,58.45,58.45,0,0,1-.1-7.415Z" transform="translate(-33.388 -26.155)"/><path d="M202.36,133.59v.987l.889.476.072-1.463Z" transform="translate(-33.389 -26.189)"/><path class="c" d="M377.48,160.846a31.226,31.226,0,0,1-.664-5.09,25.189,25.189,0,0,1,.233-5.135,13.941,13.941,0,0,1,1.67-4.856,9.283,9.283,0,0,1,1.625-2.02c.637-.583,1.311-1.113,1.993-1.625a18.761,18.761,0,0,1,9.407-3.986,15.71,15.71,0,0,1,5.135.476c.835.2,1.661.431,2.487.664.413.126.817.2,1.248.368a1.275,1.275,0,0,1,.583.422,1.221,1.221,0,0,1,.2.709h0c-.108,1.032-.188,2.065-.2,3.1a7.369,7.369,0,0,0,0,.772,2.208,2.208,0,0,0,.126.691,1.965,1.965,0,0,1,.1.18c.027.063.054.144.081.206a3.6,3.6,0,0,1,.063.413,7.858,7.858,0,0,1,0,.79,11.565,11.565,0,0,1-.072,1.571,10.2,10.2,0,0,1-.26,1.553,8.7,8.7,0,0,1-1.329,2.846,31,31,0,0,1-1.876,2.513c-.655.817-1.3,1.616-2.011,2.379a19.092,19.092,0,0,1-2.3,2.127,8.536,8.536,0,0,1-2.693,1.553h0a15.6,15.6,0,0,1-3.115,1.257,14.623,14.623,0,0,1-3.294.557,12.164,12.164,0,0,1-3.33-.251,12.316,12.316,0,0,1-3.142-1.14h0a.969.969,0,0,0,0-.745.512.512,0,0,0-.3-.233,1.059,1.059,0,0,0-.368-.063Zm0,0a1.059,1.059,0,0,1,.377.045.485.485,0,0,1,.305.224.978.978,0,0,1,0,.763h0a11.9,11.9,0,0,0,3.133,1.086,12.065,12.065,0,0,0,3.312.206,15.432,15.432,0,0,0,3.259-.592,14.936,14.936,0,0,0,3.061-1.257h0a8.518,8.518,0,0,0,2.648-1.526,20.245,20.245,0,0,0,2.262-2.118c.691-.763,1.337-1.58,1.993-2.388a22.4,22.4,0,0,0,1.8-2.5,8.575,8.575,0,0,0,1.284-2.774,9.7,9.7,0,0,0,.242-1.517,12.757,12.757,0,0,1,.063-1.544,2.693,2.693,0,0,0-.233-1.436,2.226,2.226,0,0,1-.171-.826v-.79c0-1.05.09-2.083.18-3.124h0a.817.817,0,0,0-.583-.844c-.359-.135-.808-.233-1.2-.359-.826-.233-1.652-.467-2.478-.664a14.981,14.981,0,0,0-5.045-.5,18.429,18.429,0,0,0-9.291,3.887c-.682.5-1.364,1.032-1.993,1.6a9.344,9.344,0,0,0-1.6,1.966,13.94,13.94,0,0,0-1.679,4.794,24.243,24.243,0,0,0-.305,5.108,31.356,31.356,0,0,0,.664,5.081Z" transform="translate(-51.239 -26.65)"/><path class="c" d="M378.89,163.375a1.445,1.445,0,0,1,1.059-.539,5.628,5.628,0,0,1,1.23,0c.817.1,1.571.395,2.352.539s1.562.305,2.352.422a14.163,14.163,0,0,0,2.388.153,9.049,9.049,0,0,1-2.415.09,17.954,17.954,0,0,1-2.4-.35c-.8-.153-1.553-.467-2.316-.61a5.216,5.216,0,0,0-1.176-.108,1.427,1.427,0,0,0-1.077.4Z" transform="translate(-51.455 -29.178)"/><path class="c" d="M378.431,162.306a5.619,5.619,0,0,0-.207-1.347,7.79,7.79,0,0,0-.53-1.239,5.763,5.763,0,0,1-.512-1.311,2.262,2.262,0,0,1,.126-1.4,2.792,2.792,0,0,0,.117,1.338,8.8,8.8,0,0,0,.557,1.23,5.224,5.224,0,0,1,.485,1.329A3.339,3.339,0,0,1,378.431,162.306Z" transform="translate(-51.275 -28.585)"/><path class="c" d="M381.2,159.65a14.543,14.543,0,0,0,0-1.661c-.063-.539-.206-1.077-.323-1.616a7.271,7.271,0,0,1-.242-3.348h0a11.092,11.092,0,0,0,.135-1.445,6.56,6.56,0,0,0,0-.727,1.311,1.311,0,0,0-.224-.673,1.194,1.194,0,0,1,.323.664,4.03,4.03,0,0,1,.1.736,11.666,11.666,0,0,1,0,1.481h0a8.259,8.259,0,0,0,.251,3.232,12.884,12.884,0,0,1,.233,1.67A8.026,8.026,0,0,1,381.2,159.65Z" transform="translate(-51.625 -27.886)"/><path class="c" d="M382.58,159.409a7.441,7.441,0,0,1,1.418-.09c.485.054.9.171,1.391.2.9.072,1.867,0,2.819,0a9.264,9.264,0,0,1,1.418.153c.458.081.9.1,1.391.144a10.61,10.61,0,0,1,1.409.18l.7.135a1.8,1.8,0,0,1,.682.171,2.253,2.253,0,0,0-.691-.09l-.709-.063a10.469,10.469,0,0,0-1.4-.081,10.911,10.911,0,0,1-1.427-.108,8.887,8.887,0,0,0-1.382-.117c-.9-.045-1.885,0-2.837-.108-.476-.054-.9-.206-1.382-.287A10.372,10.372,0,0,0,382.58,159.409Z" transform="translate(-51.833 -28.821)"/><path class="c" d="M384.227,157.164a19.221,19.221,0,0,1-.718-1.93l-.305-.969c-.045-.171-.108-.323-.162-.485a1.176,1.176,0,0,0-.242-.44,1.8,1.8,0,0,1,.637.826,8.007,8.007,0,0,1,.377.969,8.762,8.762,0,0,1,.413,2.029Z" transform="translate(-51.855 -28.21)"/><path class="c" d="M385.864,154.745c-.269-.9-.539-1.876-.745-2.828a8.975,8.975,0,0,1-.206-1.472A10.919,10.919,0,0,0,384.85,149a12.757,12.757,0,0,1-.153-2.935,3.834,3.834,0,0,1,.44-1.427,2.092,2.092,0,0,1,1.131-.9,2.1,2.1,0,0,0-.987,1.005,3.591,3.591,0,0,0-.341,1.373,14.865,14.865,0,0,0,.224,2.873,13.427,13.427,0,0,1,0,1.472,13.269,13.269,0,0,0,.162,1.436C385.469,152.86,385.684,153.848,385.864,154.745Z" transform="translate(-52.047 -27.227)"/><path class="c" d="M387.36,154.489c2.181.26,4.336.655,6.49,1.032a5.736,5.736,0,0,0,3.16-.162,4.659,4.659,0,0,0,2.451-2.02,4.748,4.748,0,0,1-.951,1.355,4.623,4.623,0,0,1-1.409.9,5.79,5.79,0,0,1-3.312.251C391.642,155.423,389.5,155.019,387.36,154.489Z" transform="translate(-52.322 -28.21)"/><path class="c" d="M391.48,150.316a2.926,2.926,0,0,0,2.038.9,7.549,7.549,0,0,0,2.271-.206.656.656,0,0,1,.368,0,1.185,1.185,0,0,1,.278.2c.081.09.215.072.395,0a9.427,9.427,0,0,0,1.068-.413,1.8,1.8,0,0,0,.9-1.912,2.181,2.181,0,0,1,0,1.176,1.8,1.8,0,0,1-.745.952,7.18,7.18,0,0,1-1.086.485.664.664,0,0,1-.709-.054c-.18-.171-.189-.171-.395-.144a6.652,6.652,0,0,1-2.352.144,2.747,2.747,0,0,1-2.029-1.122Z" transform="translate(-52.744 -27.753)"/><path class="c" d="M394.026,140.33a5.144,5.144,0,0,0-2.89,3.815,8.976,8.976,0,0,0,0,2.5,12.655,12.655,0,0,1,.117,2.54c-.054-.844-.224-1.67-.359-2.513a8.241,8.241,0,0,1-.081-2.576,5.234,5.234,0,0,1,1.059-2.352A4.183,4.183,0,0,1,394.026,140.33Z" transform="translate(-52.669 -26.878)"/><path class="c" d="M394.1,148.32c.628.072,1.239.2,1.849.305l.9.153a7.866,7.866,0,0,0,.9.072,2.379,2.379,0,0,1-.943.171,4.867,4.867,0,0,1-.952-.081A5.79,5.79,0,0,1,394.1,148.32Z" transform="translate(-53.012 -27.696)"/><path class="c" d="M396.493,145.453a4.489,4.489,0,0,1-.718-1.715,2.693,2.693,0,0,1,0-.961l.072-.233.117-.224.18-.162a1.562,1.562,0,0,1,.224-.1.9.9,0,0,0-.35.754,4.136,4.136,0,0,0,.081.9C396.2,144.268,396.368,144.843,396.493,145.453Z" transform="translate(-53.179 -27.055)"/><path class="c" d="M399.74,142.513a13.3,13.3,0,0,0-1.023-1.7c-.18-.269-.386-.521-.592-.781s-.44-.485-.664-.745a4.075,4.075,0,0,1,1.526,1.346,4.776,4.776,0,0,1,.494.9A3.491,3.491,0,0,1,399.74,142.513Z" transform="translate(-53.356 -26.772)"/><path class="c" d="M397.06,145.69a10.306,10.306,0,0,1,1.427.215c.476.1.9.224,1.4.287a1.7,1.7,0,0,1-.736.117,4.02,4.02,0,0,1-.727-.09,4.228,4.228,0,0,1-1.364-.53Z" transform="translate(-53.315 -27.427)"/></g></svg>