<svg xmlns="http://www.w3.org/2000/svg" width="992.86" height="341.18" viewBox="0 0 992.86 341.18"><defs><style>.a{fill:#fff;}.b{fill:#abefd2;opacity:0.5;}.c{fill:#78a5b3;}.d{fill:#ffdee7;}.e{fill:#707070;font-size:39px;font-family:Muli-LightItalic, Muli;font-weight:300;font-style:italic;}</style></defs><path class="a" d="M42.52,0H950.34a42.52,42.52,0,0,1,42.52,42.52h0V298.66a42.52,42.52,0,0,1-42.52,42.52H42.52A42.52,42.52,0,0,1,0,298.66V42.52A42.52,42.52,0,0,1,42.52,0Z"/><circle class="b" cx="29.62" cy="29.62" r="29.62" transform="translate(42.71 221.33)"/><circle class="b" cx="38.06" cy="38.06" r="38.06" transform="translate(187.42 94.13)"/><circle class="b" cx="46.5" cy="46.5" r="46.5" transform="translate(345.71 179.36)"/><circle class="b" cx="54.94" cy="54.94" r="54.94" transform="translate(520.37 211.34)"/><circle class="b" cx="63.39" cy="63.39" r="63.39" transform="translate(633.01 88.54)"/><circle class="b" cx="71.83" cy="71.83" r="71.83" transform="translate(806.49 27.43)"/><rect class="c" width="13.75" height="144.01" transform="translate(888.17 105.73)"/><path class="c" d="M863.72,219.69l-4.82,1.6-1,1.78c-6.3,10.84-15.54,16.37-27.47,16.37-17.34,0-29.38-11.92-30.78-30h72V202.2c0-27.09-17-45.2-42.26-45.2s-43.76,20.24-43.76,48.12c0,28.33,18.36,48.12,44.66,48.12a44.11,44.11,0,0,0,39.84-23.74l2.49-4.61Zm-34.41-49c15.55,0,25.69,9.22,27.92,24.92H800.16c3-15.1,14.18-24.92,29.12-24.92Z"/><path class="c" d="M734.25,157a44.57,44.57,0,0,0-31.64,13.33v-64.6H688.87v144h13.74v-9.45a45.21,45.21,0,0,0,31.28,12.91c25.85,0,43.21-19.78,43.21-49.21C777.1,176.3,759.48,157,734.25,157Zm28.93,47c0,21.87-11.3,35.51-29.5,35.51-17.47,0-31-14.52-31.43-33.77A35,35,0,0,1,712,180.16a30.4,30.4,0,0,1,21.88-9.4c17.53-.06,29.29,13.32,29.29,33.23Z"/><path class="c" d="M629.78,157a44.57,44.57,0,0,0-31.64,13.33v-64.6H584.4v144h13.74v-9.45a45.21,45.21,0,0,0,31.28,12.91c25.85,0,43.21-19.78,43.21-49.21C672.63,176.3,655,157,629.78,157Zm28.92,47c0,21.87-11.29,35.46-29.46,35.46-17.47,0-31-14.52-31.43-33.77a35,35,0,0,1,9.76-25.58,30.44,30.44,0,0,1,21.88-9.4c17.53,0,29.26,13.38,29.26,33.29Z"/><path class="c" d="M560,160.39v89.32H546.19v-9.4c-7.79,8.11-18,12.85-28.74,12.85-12.87,0-34.48-5.33-34.48-41V160.39h13.74v48.83c0,26.61,11,30.19,21.67,30.19,14.09,0,27.83-14.95,27.83-30.19V160.39Z"/><path class="c" d="M423.93,157a44.59,44.59,0,0,0-31.65,13.33v-64.6H378.54v144H392.3v-9.45a45.23,45.23,0,0,0,31.29,12.91c25.85,0,43.21-19.78,43.21-49.21C466.78,176.3,449.16,157,423.93,157Zm28.92,47c0,21.87-11.29,35.46-29.46,35.46-17.47,0-31-14.52-31.43-33.77a35,35,0,0,1,9.75-25.58,30.44,30.44,0,0,1,21.88-9.4c17.48,0,29.26,13.38,29.26,33.29Z"/><path class="d" d="M297.73,219.69l-4.82,1.6-1,1.78c-6.3,10.87-15.53,16.43-27.45,16.43-17.34,0-29.39-11.92-30.79-30h72v-7.24c0-27.1-17-45.2-42.27-45.2s-43.75,20.23-43.75,48.11c0,28.33,18.36,48.12,44.66,48.12a44.09,44.09,0,0,0,39.83-23.74l2.49-4.61Zm-34.39-49c15.56,0,25.7,9.22,27.93,24.92H234.21c3.02-15.08,14.17-24.9,29.13-24.9Z"/><path class="d" d="M131.05,110.27H96.74V249.74h34.31c49.4,0,77.73-25.88,77.73-71C208.77,134.59,181.17,110.27,131.05,110.27Zm-20.2,14.09h18.42c43.92,0,65.26,17.78,65.26,54.35,0,37.76-22.14,56.9-65.8,56.9H110.85Z"/><text class="e" transform="translate(95 89)"><tspan x="0" y="0">Basisschool</tspan></text></svg>