<svg xmlns="http://www.w3.org/2000/svg" width="33" height="33" viewBox="0 0 33 33"><defs><style>.a{fill:#fdf5f5;stroke:#e2f7fa;}.b{fill:#707070;}.c{stroke:none;}.d{fill:none;}</style></defs><g transform="translate(0.368)"><g class="a" transform="translate(-0.368)"><rect class="c" width="33" height="33" rx="10"/><rect class="d" x="0.5" y="0.5" width="32" height="32" rx="9.5"/></g><path class="b" d="M2.156,48a2.156,2.156,0,1,0,2.156,2.156A2.156,2.156,0,0,0,2.156,48Zm0,7.187a2.156,2.156,0,1,0,2.156,2.156,2.156,2.156,0,0,0-2.156-2.156Zm0,7.187A2.156,2.156,0,1,0,4.312,64.53a2.156,2.156,0,0,0-2.156-2.156Zm20.124.719H7.906a.719.719,0,0,0-.719.719v1.437a.719.719,0,0,0,.719.719H22.28A.719.719,0,0,0,23,65.249V63.811A.719.719,0,0,0,22.28,63.093Zm0-14.374H7.906a.719.719,0,0,0-.719.719v1.437a.719.719,0,0,0,.719.719H22.28A.719.719,0,0,0,23,50.875V49.437A.719.719,0,0,0,22.28,48.719Zm0,7.187H7.906a.719.719,0,0,0-.719.719v1.437a.719.719,0,0,0,.719.719H22.28A.719.719,0,0,0,23,58.062V56.624A.719.719,0,0,0,22.28,55.906Z" transform="translate(4.632 -41.188)"/></g></svg>