<svg xmlns="http://www.w3.org/2000/svg" width="992.8" height="341.101" viewBox="0 0 992.8 341.101"><defs><style>.a{fill:#fff;}.b{fill:#abefd2;opacity:0.5;}.c{fill:none;stroke:#78a5b3;stroke-width:13px;font-size:167.65px;font-family:Quasimoda-HairLine, Quasimoda;font-weight:100;}</style></defs><path class="a" d="M42.5,0H950.3a42.464,42.464,0,0,1,42.5,42.5h0V298.6a42.464,42.464,0,0,1-42.5,42.5H42.5A42.379,42.379,0,0,1,0,298.7V42.5A42.464,42.464,0,0,1,42.5,0Z"/><circle class="b" cx="29.6" cy="29.6" r="29.6" transform="translate(42.7 221.3)"/><circle class="b" cx="38.1" cy="38.1" r="38.1" transform="translate(181.818 163.677) rotate(-80.782)"/><circle class="b" cx="46.5" cy="46.5" r="46.5" transform="translate(345.7 179.4)"/><circle class="b" cx="54.9" cy="54.9" r="54.9" transform="translate(520.4 211.4)"/><circle class="b" cx="63.4" cy="63.4" r="63.4" transform="translate(633 88.5)"/><circle class="b" cx="71.8" cy="71.8" r="71.8" transform="translate(806.5 27.5)"/><text class="c" transform="translate(94.996 243.286)"><tspan x="0" y="0">Ouderraad</tspan></text></svg>