<?xml version="1.0" encoding="utf-8"?>
<!-- Generator: Adobe Illustrator 23.0.4, SVG Export Plug-In . SVG Version: 6.00 Build 0)  -->
<svg version="1.1" id="Layer_1" xmlns="http://www.w3.org/2000/svg" xmlns:xlink="http://www.w3.org/1999/xlink" x="0px" y="0px"
	 viewBox="0 0 992.9 341.2" style="enable-background:new 0 0 992.9 341.2;" xml:space="preserve">
<style type="text/css">
	.st0{fill:#FFFFFF;}
	.st1{opacity:0.5;fill:#ABEFD2;enable-background:new    ;}
	.st2{enable-background:new    ;}
	.st3{fill:#78A5B3;}
</style>
<title>logo picked</title>
<g id="Group_1">
	<path id="Path_15" class="st0" d="M42.5,0h907.8c23.5,0,42.5,19,42.5,42.5l0,0l0,0v256.1c0,23.5-19,42.5-42.5,42.5l0,0H42.5
		C19,341.2,0,322.1,0,298.7V42.5C0,19,19,0,42.5,0z"/>
	<g id="logo_picked-07">
		<circle id="Ellipse_7" class="st1" cx="72.3" cy="250.9" r="29.6"/>
		
			<ellipse id="Ellipse_8" transform="matrix(0.1602 -0.9871 0.9871 0.1602 58.9357 333.6151)" class="st1" cx="225.5" cy="132.2" rx="38.1" ry="38.1"/>
		<circle id="Ellipse_9" class="st1" cx="392.2" cy="225.9" r="46.5"/>
		<circle id="Ellipse_10" class="st1" cx="575.3" cy="266.3" r="54.9"/>
		<circle id="Ellipse_11" class="st1" cx="696.4" cy="151.9" r="63.4"/>
		<circle id="Ellipse_12" class="st1" cx="878.3" cy="99.3" r="71.8"/>
	</g>
</g>
<g>
	<g class="st2">
		<g>
			<path class="st3" d="M168.3,253c-39.7,0-68.5-29-68.5-69c0-19,6.6-36.4,18.6-48.9c12.6-13.2,29.9-20.1,49.9-20.1
				c20.1,0,37.3,7,49.9,20.1c12,12.5,18.6,29.9,18.6,48.9C236.8,223.9,208,253,168.3,253z M168.3,130.9c-30.3,0-52.3,22.3-52.3,53
				c0,30.7,22,53,52.3,53c30.3,0,52.3-22.3,52.3-53C220.6,153.2,198.6,130.9,168.3,130.9z"/>
		</g>
		<g>
			<path class="st3" d="M284.6,253c-21.2,0-33.3-14.3-33.3-39.4v-49.2H267v46.6c0,23.2,8.9,26.4,18.5,26.4c12,0,24.2-13.3,24.2-26.4
				v-46.6h15.7v85.4h-15.7v-6.7C302.5,249.4,293.8,253,284.6,253z"/>
		</g>
		<g>
			<path class="st3" d="M378.8,253c-24.8,0-41.5-18.6-41.5-46.2c0-12.8,4.3-24.4,12.2-32.7c7.8-8.3,18.5-12.8,30.2-12.8
				c9.9,0,19.3,3.8,26.7,10.2v-57.5H422v135.9h-15.7v-7.2C398.7,249,388.9,253,378.8,253z M380,176.9c-15.8,0-26.9,12.3-26.9,29.9
				c0,18.8,9.9,30.5,25.9,30.5c15.1,0,27.3-12.8,27.7-29c0.2-9-3-17.6-8.9-23.6C392.9,179.6,386.6,176.9,380,176.9z"/>
		</g>
		<g>
			<path class="st3" d="M477.1,253c-25.1,0-42.7-18.9-42.7-45.9c0-26.6,17.6-45.9,41.9-45.9c24.2,0,40.5,17.4,40.5,43.2v8.2h-66.3
				c1.8,15,12.1,24.7,26.7,24.7c10.4,0,18.5-4.8,24.1-14.4l1.2-2.1l5.6-1.9l10,5.8l-3,5.5C507.3,244.7,493.5,253,477.1,253z
				 M451.3,196.9h49c-2.4-12.7-11.1-20-24-20C463.8,176.9,454.4,184.7,451.3,196.9z"/>
		</g>
		<g>
			<path class="st3" d="M544.8,249.8h-15.7v-85.4h15.7v5.4c5.9-5.5,12.8-8.6,20-8.6c10.1,0,17.7,5.3,21.5,15.1l1.9,5l-8.4,5.1h-6.7
				l-1.7-4c-2.1-5-3.7-5.5-7.2-5.5c-3.8,0-8.6,3.1-12.5,8.1c-4.4,5.6-7,12.8-7,19.2V249.8z"/>
		</g>
		<g>
			<path class="st3" d="M608.3,249.8h-15.7v-85.4h15.7v5.4c5.9-5.5,12.8-8.6,20-8.6c10.1,0,17.7,5.3,21.5,15.1l1.9,5l-8.4,5.1h-6.7
				l-1.7-4c-2.1-5-3.7-5.5-7.2-5.5c-3.8,0-8.6,3.1-12.5,8.1c-4.4,5.6-7,12.8-7,19.2V249.8z"/>
		</g>
		<g>
			<path class="st3" d="M670.5,253c-14.5,0-25.1-10-25.1-23.8c0-22.8,23.9-29.9,51.1-33.4v-0.4c0-17.1-6-18.5-12.8-18.5
				c-7.6,0-16.6,5.9-22,14.4l-1.2,2l-5.7,1.9l-9.8-6.6l3.2-5.3c8-13.2,22.5-22.1,35.9-22.1c17.9,0,28.1,11.6,28.1,31.8v42.2
				c0,0.7,0,1.3,0.1,1.8c0.7-0.2,1.7-0.6,3-1.2l3.3-1.5l6.4,4.2v9.8l-3.8,1.8c-3.5,1.7-6.8,2.5-10,2.5c-8.8,0-12.4-4.8-13.8-9.5
				C688.2,250.1,680,253,670.5,253z M696.6,211.4c-31.5,4.3-35.3,11.9-35.3,17.5c0,7.6,7.1,8.4,10.1,8.4c6.1,0,12.8-2.3,25.2-13.5
				V211.4z"/>
		</g>
		<g>
			<path class="st3" d="M749.2,253c-14.5,0-25.1-10-25.1-23.8c0-22.8,23.9-29.9,51.1-33.4v-0.4c0-17.1-6-18.5-12.8-18.5
				c-7.6,0-16.6,5.9-22,14.4l-1.2,2l-5.7,1.9l-9.8-6.6l3.2-5.3c8-13.2,22.5-22.1,35.9-22.1c17.9,0,28.1,11.6,28.1,31.8v42.2
				c0,0.7,0,1.3,0.1,1.8c0.7-0.2,1.7-0.6,3-1.2l3.3-1.5l6.4,4.2v9.8l-3.8,1.8c-3.5,1.7-6.8,2.5-10,2.5c-8.8,0-12.4-4.8-13.8-9.5
				C766.8,250.1,758.7,253,749.2,253z M775.2,211.4c-31.5,4.3-35.3,11.9-35.3,17.5c0,7.6,7.1,8.4,10.1,8.4c6.1,0,12.8-2.3,25.2-13.5
				V211.4z"/>
		</g>
		<g>
			<path class="st3" d="M844.9,253c-24.8,0-41.5-18.6-41.5-46.2c0-12.8,4.3-24.4,12.2-32.7c7.8-8.3,18.5-12.8,30.2-12.8
				c9.9,0,19.3,3.8,26.7,10.2v-57.5h15.7v135.9h-15.7v-7.2C864.8,249,854.9,253,844.9,253z M846.1,176.9
				c-15.8,0-26.9,12.3-26.9,29.9c0,18.8,9.9,30.5,25.9,30.5c15.1,0,27.3-12.8,27.7-29l0,0c0.2-9-3-17.6-8.9-23.6
				C859,179.6,852.6,176.9,846.1,176.9z"/>
		</g>
	</g>
</g>
</svg>
