<svg xmlns="http://www.w3.org/2000/svg" width="191.245" height="167.34" viewBox="0 0 191.245 167.34"><defs><style>.a{fill:#78a5b3;}</style></defs><path class="a" d="M95.616,103.712c-29.661,0-71.716,45.853-71.716,74.8,0,13.036,10.014,20.824,26.8,20.824,18.243,0,30.289-9.368,44.92-9.368,14.758,0,26.837,9.368,44.92,9.368,16.782,0,26.8-7.788,26.8-20.824C167.332,149.565,125.278,103.712,95.616,103.712ZM40.6,99C36.72,86.059,24.752,77.677,13.875,80.277s-16.543,15.2-12.659,28.141,15.852,21.324,26.729,18.725S44.489,111.944,40.6,99ZM72.249,91.24C83.806,88.2,89.588,72.586,85.165,56.368s-17.376-26.9-28.933-23.857S38.894,51.165,43.316,67.383,60.7,94.284,72.249,91.24Zm105.1-10.959c-10.877-2.6-22.841,5.782-26.729,18.725s1.782,25.541,12.659,28.141,22.841-5.782,26.729-18.725-1.782-25.541-12.659-28.141ZM118.984,91.24c11.557,3.04,24.51-7.639,28.933-23.857S146.557,35.555,135,32.511s-24.51,7.638-28.933,23.857S107.427,88.2,118.984,91.24Z" transform="translate(0.008 -31.993)"/></svg>