<svg xmlns="http://www.w3.org/2000/svg" width="168" height="168" viewBox="0 0 168 168"><defs><style>.a{fill:#78a5b3;}</style></defs><path class="a" d="M150,32H18A18,18,0,0,0,0,50V182a18,18,0,0,0,18,18H150a18,18,0,0,0,18-18V50a18,18,0,0,0-18-18Zm-6.146,115.264-5.625,24.375A5.625,5.625,0,0,1,132.75,176,108.758,108.758,0,0,1,24,67.25a5.887,5.887,0,0,1,4.361-5.479l24.375-5.625A6.837,6.837,0,0,1,54,56a6.1,6.1,0,0,1,5.171,3.409l11.25,26.25a6.713,6.713,0,0,1,.454,2.216,6.375,6.375,0,0,1-2.062,4.354L54.6,103.854A86.966,86.966,0,0,0,96.146,145.4l11.625-14.209a6.375,6.375,0,0,1,4.354-2.062,6.693,6.693,0,0,1,2.216.454l26.25,11.25A6.094,6.094,0,0,1,144,146,6.528,6.528,0,0,1,143.854,147.264Z" transform="translate(0 -32)"/></svg>