<svg xmlns="http://www.w3.org/2000/svg" xmlns:xlink="http://www.w3.org/1999/xlink" width="251" height="597" viewBox="0 0 251 597"><defs><style>.a{fill:none;}.b{clip-path:url(#a);}.c{fill:#ffdee7;}</style><clipPath id="a"><rect class="a" width="251" height="597"/></clipPath></defs><g transform="translate(-114 -2841)"><g class="b" transform="translate(114 2841)"><g transform="translate(-462 -4025)"><path class="c" d="M102,55A47,47,0,1,1,55,8,47,47,0,0,1,102,55ZM56.261,23.54c-10.328,0-16.915,4.351-22.088,12.083a2.277,2.277,0,0,0,.515,3.081l6.576,4.986a2.273,2.273,0,0,0,3.158-.4c3.386-4.294,5.707-6.784,10.86-6.784,3.872,0,8.66,2.492,8.66,6.246,0,2.838-2.343,4.3-6.166,6.439-4.458,2.5-10.357,5.61-10.357,13.391v.758a2.274,2.274,0,0,0,2.274,2.274H60.306a2.274,2.274,0,0,0,2.274-2.274v-.253c0-5.394,15.765-5.619,15.765-20.215C78.346,31.879,66.943,23.54,56.261,23.54ZM55,70.54a8.718,8.718,0,1,0,8.718,8.718A8.727,8.727,0,0,0,55,70.54Z" transform="translate(611 4213)"/><path class="c" d="M92,50A42,42,0,1,1,50,8,42,42,0,0,1,92,50ZM51.127,21.887c-9.229,0-15.116,3.888-19.738,10.8a2.035,2.035,0,0,0,.46,2.753l5.876,4.456a2.032,2.032,0,0,0,2.822-.359c3.025-3.837,5.1-6.062,9.7-6.062,3.46,0,7.739,2.227,7.739,5.582,0,2.536-2.094,3.839-5.51,5.754-3.984,2.233-9.256,5.013-9.256,11.966v.677a2.032,2.032,0,0,0,2.032,2.032h9.484a2.032,2.032,0,0,0,2.032-2.032v-.226c0-4.82,14.088-5.021,14.088-18.065C70.862,29.338,60.673,21.887,51.127,21.887ZM50,63.887a7.79,7.79,0,1,0,7.79,7.79A7.8,7.8,0,0,0,50,63.887Z" transform="translate(496 4339)"/><path class="c" d="M176,92A84,84,0,1,1,92,8,84,84,0,0,1,176,92ZM94.254,35.774c-18.459,0-30.232,7.776-39.476,21.6a4.07,4.07,0,0,0,.92,5.507L67.45,71.788a4.063,4.063,0,0,0,5.645-.719c6.051-7.674,10.2-12.125,19.409-12.125,6.919,0,15.478,4.453,15.478,11.163,0,5.073-4.187,7.678-11.02,11.508-7.968,4.467-18.511,10.026-18.511,23.933V106.9a4.065,4.065,0,0,0,4.065,4.065h18.968a4.065,4.065,0,0,0,4.065-4.065v-.452c0-9.64,28.176-10.042,28.176-36.129C133.724,50.677,113.346,35.774,94.254,35.774Zm-2.254,84a15.581,15.581,0,1,0,15.581,15.581A15.6,15.6,0,0,0,92,119.774Z" transform="translate(454 4017)"/><path class="c" d="M50,29A21,21,0,1,1,29,8,21,21,0,0,1,50,29ZM29.564,14.944a10.968,10.968,0,0,0-9.869,5.4,1.018,1.018,0,0,0,.23,1.377l2.938,2.228a1.016,1.016,0,0,0,1.411-.18c1.513-1.919,2.55-3.031,4.852-3.031,1.73,0,3.87,1.113,3.87,2.791,0,1.268-1.047,1.919-2.755,2.877-1.992,1.117-4.628,2.506-4.628,5.983v.339a1.016,1.016,0,0,0,1.016,1.016h4.742a1.016,1.016,0,0,0,1.016-1.016v-.113c0-2.41,7.044-2.51,7.044-9.032C39.431,18.669,34.336,14.944,29.564,14.944Zm-.564,21a3.9,3.9,0,1,0,3.9,3.9A3.9,3.9,0,0,0,29,35.944Z" transform="translate(580 4504)"/><path class="c" d="M39,23.5A15.5,15.5,0,1,1,23.5,8,15.5,15.5,0,0,1,39,23.5ZM23.916,13.125a8.1,8.1,0,0,0-7.284,3.985.751.751,0,0,0,.17,1.016L18.97,19.77a.75.75,0,0,0,1.042-.133c1.117-1.416,1.882-2.237,3.581-2.237,1.277,0,2.856.822,2.856,2.06,0,.936-.773,1.417-2.033,2.123C22.945,22.408,21,23.434,21,26v.25a.75.75,0,0,0,.75.75h3.5a.75.75,0,0,0,.75-.75v-.083c0-1.779,5.2-1.853,5.2-6.667C31.2,15.875,27.439,13.125,23.916,13.125Zm-.416,15.5A2.875,2.875,0,1,0,26.375,31.5,2.878,2.878,0,0,0,23.5,28.625Z" transform="translate(454 4583)"/></g></g></g></svg>