<?xml version="1.0" encoding="utf-8"?>
<!-- Generator: Adobe Illustrator 23.0.4, SVG Export Plug-In . SVG Version: 6.00 Build 0)  -->
<svg version="1.1" id="Layer_1" xmlns="http://www.w3.org/2000/svg" xmlns:xlink="http://www.w3.org/1999/xlink" x="0px" y="0px"
	 viewBox="0 0 992.9 341.2" style="enable-background:new 0 0 992.9 341.2;" xml:space="preserve">
<style type="text/css">
	.st0{fill:#FFFFFF;}
	.st1{opacity:0.5;fill:#ABEFD2;enable-background:new    ;}
	.st2{enable-background:new    ;}
	.st3{fill:#78A5B3;}
</style>
<title>logo picked</title>
<g id="Group_1">
	<path id="Path_15" class="st0" d="M42.5,0h907.8c23.5,0,42.5,19,42.5,42.5l0,0l0,0v256.1c0,23.5-19,42.5-42.5,42.5l0,0H42.5
		C19,341.2,0,322.1,0,298.7V42.5C0,19,19,0,42.5,0z"/>
	<g id="logo_picked-07">
		<circle id="Ellipse_7" class="st1" cx="72.3" cy="250.9" r="29.6"/>
		
			<ellipse id="Ellipse_8" transform="matrix(0.1602 -0.9871 0.9871 0.1602 58.91 333.5843)" class="st1" cx="225.5" cy="132.2" rx="38.1" ry="38.1"/>
		<circle id="Ellipse_9" class="st1" cx="392.2" cy="225.9" r="46.5"/>
		<circle id="Ellipse_10" class="st1" cx="575.3" cy="266.3" r="54.9"/>
		<circle id="Ellipse_11" class="st1" cx="696.4" cy="151.9" r="63.4"/>
		<circle id="Ellipse_12" class="st1" cx="878.3" cy="99.3" r="71.8"/>
	</g>
</g>
<g>
	<g class="st2">
		<g>
			<path class="st3" d="M435.9,161.2c-25.9,0-45.4,19.7-45.4,45.9c0,12.4,4.5,23.9,12.8,32.4c8.4,8.7,20,13.5,32.6,13.5
				c12.6,0,24.2-4.8,32.6-13.5c8.2-8.5,12.8-20,12.8-32.4C481.3,180.9,461.8,161.2,435.9,161.2z M435.9,237.3
				c-16.6,0-29.5-13.3-29.5-30.2c0-17.2,12.7-30.2,29.5-30.2c16.8,0,29.5,13,29.5,30.2C465.5,224,452.5,237.3,435.9,237.3z"/>
		</g>
		<g>
			<path class="st3" d="M772.5,148l-0.1,16.4h23.9V180h-24v69.7h-15.7V180h-15.1v-15.7h15.1v-16.3c0-9,0-36.2,23.8-36.2
				c4.6,0,9.6,1.1,14.2,3.1l4.4,1.9l-1.4,11.7l-7.1,2.4l-2.5-1.3c-2-1.1-5.3-1.9-7.5-1.9C777.6,127.7,772.7,127.7,772.5,148z"/>
		</g>
		<g>
			<path class="st3" d="M836.1,161.2c-25.9,0-45.4,19.7-45.4,45.9c0,12.4,4.5,23.9,12.8,32.4c8.4,8.7,20,13.5,32.6,13.5
				c12.6,0,24.2-4.8,32.6-13.5c8.2-8.5,12.8-20,12.8-32.4C881.5,180.9,862,161.2,836.1,161.2z M836.1,237.3
				c-16.6,0-29.5-13.3-29.5-30.2c0-17.2,12.7-30.2,29.5-30.2c16.8,0,29.5,13,29.5,30.2C865.6,224,852.7,237.3,836.1,237.3z"/>
		</g>
	</g>
	<g class="st2">
		<g>
			<path class="st3" d="M282.2,218.4l10,5.8l-3,5.5c-8.1,15-21.7,23.2-38.1,23.2c-25.1,0-42.7-18.9-42.7-45.9
				c0-27,17.6-45.9,42.9-45.9c16.3,0,29.8,8.3,37.9,23.4l3,5.5l-10,5.8l-5.6-1.9l-1.2-2.1c-6-10.4-13.3-15-23.9-15
				c-16.5,0-27.2,11.9-27.2,30.2c0,18.1,10.9,30.2,27,30.2c10.5,0,18.1-4.7,24.1-14.9l1.2-2.1L282.2,218.4z"/>
			<path class="st3" d="M198.8,216.5c0,20.7-17.2,36.3-40,36.3c-20.3,0-35-9.7-44.9-29.6l-2.5-5.1l9.7-6.4l6.4,1.6l1.3,2.7
				c7.2,14.6,16.1,20.8,29.9,20.8c13.7,0,24-8.7,24-20.3c0-11-4.3-17.6-31.3-30.2c-21.8-10.2-33.6-19.4-33.6-38.9
				c0-18.8,15.9-32.5,37.8-32.5c17.2,0,30.1,7.8,38.3,23.2l2.8,5.3l-9.7,6.3l-6.3-1.6l-1.3-2.7c-5.1-10.1-12.5-14.5-23.9-14.5
				c-12.3,0-21.5,6.9-21.5,16.1c0,10.2,3.3,14.4,28.5,26.5C186.6,185.1,198.8,194.9,198.8,216.5z"/>
			<path class="st3" d="M378.5,200.5v49.2h-15.7v-46.6c0-24.3-9.9-26.4-19.1-26.4c-12.5,0-24.9,13.1-24.9,26.4v46.6h-15.7V113.9
				h15.7V171c7.2-6.3,16.1-9.8,25.7-9.8C357.2,161.2,378.5,166.3,378.5,200.5z"/>
		</g>
		<g>
			<path class="st3" d="M531.1,161.2c-25.9,0-45.4,19.7-45.4,45.9c0,12.4,4.5,23.9,12.8,32.4c8.4,8.7,20,13.5,32.6,13.5
				s24.2-4.8,32.6-13.5c8.2-8.5,12.8-20,12.8-32.4C576.5,180.9,557,161.2,531.1,161.2z M531.1,237.3c-16.6,0-29.5-13.3-29.5-30.2
				c0-17.2,12.7-30.2,29.5-30.2c16.8,0,29.5,13,29.5,30.2C560.7,224,547.7,237.3,531.1,237.3z"/>
		</g>
		<g>
			<rect x="588.5" y="113.9" class="st3" width="15.7" height="135.9"/>
			<path class="st3" d="M734.3,200.5v49.2h-15.7v-46.6c0-22-7.3-26.4-19.1-26.4c-12.5,0-24.9,13.1-24.9,26.4v46.6h-15.7v-85.4h15.7
				v6.7c7.2-6.3,16.1-9.9,25.7-9.9C713,161.2,734.3,166.3,734.3,200.5z"/>
			<rect x="623.7" y="164.4" class="st3" width="15.7" height="85.4"/>
			<path class="st3" d="M641.2,137c0,5.7-4.2,10-9.7,10c-5.5,0-9.7-4.3-9.7-10c0-5.7,4.2-10,9.7-10C637.1,127,641.2,131.3,641.2,137
				z"/>
		</g>
	</g>
</g>
</svg>
