<svg xmlns="http://www.w3.org/2000/svg" width="208.75" height="167" viewBox="0 0 208.75 167"><defs><style>.a{fill:#ffdee7;}</style></defs><path class="a" d="M0,73.062v88.719A5.217,5.217,0,0,0,5.219,167H31.312V62.625H10.437A10.439,10.439,0,0,0,0,73.062ZM117.422,57.406h-7.828V44.359a2.609,2.609,0,0,0-2.609-2.609h-5.219a2.609,2.609,0,0,0-2.609,2.609V65.234a2.609,2.609,0,0,0,2.609,2.609h15.656a2.609,2.609,0,0,0,2.609-2.609V60.016A2.609,2.609,0,0,0,117.422,57.406Zm44.93-20.862L110.165,1.751a10.444,10.444,0,0,0-11.579,0L46.4,36.544a10.438,10.438,0,0,0-4.648,8.683V167H83.5V120.031a5.217,5.217,0,0,1,5.219-5.219h31.312a5.217,5.217,0,0,1,5.219,5.219V167H167V45.23A10.44,10.44,0,0,0,162.352,36.544ZM104.375,83.5a26.094,26.094,0,1,1,26.094-26.094A26.095,26.095,0,0,1,104.375,83.5Zm93.937-20.875H177.437V167h26.094a5.217,5.217,0,0,0,5.219-5.219V73.062A10.439,10.439,0,0,0,198.312,62.625Z"/></svg>