<?xml version="1.0" encoding="utf-8"?>
<!-- Generator: Adobe Illustrator 23.0.4, SVG Export Plug-In . SVG Version: 6.00 Build 0)  -->
<svg version="1.1" id="Layer_1" xmlns="http://www.w3.org/2000/svg" xmlns:xlink="http://www.w3.org/1999/xlink" x="0px" y="0px"
	 viewBox="0 0 992.9 341.2" style="enable-background:new 0 0 992.9 341.2;" xml:space="preserve">
<style type="text/css">
	.st0{fill:#FFFFFF;}
	.st1{opacity:0.5;fill:#ABEFD2;enable-background:new    ;}
	.st2{fill:#78A5B3;}
</style>
<title>logo picked</title>
<g id="Group_1">
	<path id="Path_15" class="st0" d="M42.5,0h907.8c23.5,0,42.5,19,42.5,42.5l0,0l0,0v256.1c0,23.5-19,42.5-42.5,42.5l0,0H42.5
		C19,341.2,0,322.1,0,298.7V42.5C0,19,19,0,42.5,0z"/>
	<g id="logo_picked-07">
		<circle id="Ellipse_7" class="st1" cx="72.3" cy="250.9" r="29.6"/>
		
			<ellipse id="Ellipse_8" transform="matrix(0.1602 -0.9871 0.9871 0.1602 58.9357 333.6151)" class="st1" cx="225.5" cy="132.2" rx="38.1" ry="38.1"/>
		<circle id="Ellipse_9" class="st1" cx="392.2" cy="225.9" r="46.5"/>
		<circle id="Ellipse_10" class="st1" cx="575.3" cy="266.3" r="54.9"/>
		<circle id="Ellipse_11" class="st1" cx="696.4" cy="151.9" r="63.4"/>
		<circle id="Ellipse_12" class="st1" cx="878.3" cy="99.3" r="71.8"/>
	</g>
</g>
<g>
	<g>
		<path class="st2" d="M276.4,236.4c-14.8,0-25.1-11.1-25.1-26.9c0-15.6,10.3-26.9,24.6-26.9c14.2,0,23.8,10.2,23.8,25.4v4.8h-38.9
			c1.1,8.8,7.1,14.5,15.7,14.5c6.1,0,10.9-2.8,14.1-8.4l0.7-1.3l3.3-1.1l5.8,3.4l-1.8,3.2C294.2,231.5,286,236.4,276.4,236.4z
			 M259.3,205.1h32.6c-1-9.3-6.9-14.9-16-14.9C267.1,190.2,260.8,196,259.3,205.1z"/>
	</g>
	<g>
		<path class="st2" d="M107.8,236.4c-12.4,0-19.5-8.4-19.5-23.1v-28.9h9.2v27.3c0,13.6,5.2,15.5,10.8,15.5c7,0,14.2-7.8,14.2-15.5
			v-27.3h9.2v50.1h-9.2v-3.9C118.3,234.3,113.2,236.4,107.8,236.4z"/>
	</g>
	<g>
		<path class="st2" d="M187.4,234.5h-9.2v-27.3c0-12.9-4.3-15.5-11.2-15.5c-7.4,0-14.6,7.7-14.6,15.5v27.3h-9.2v-50.1h9.2v3.9
			c4.2-3.7,9.4-5.8,15.1-5.8c7.4,0,19.9,3,19.9,23.1V234.5z"/>
	</g>
	<g>
		<path class="st2" d="M218.8,236.4c-14.6,0-24.4-10.9-24.4-27.1c0-7.5,2.5-14.3,7.1-19.2c4.6-4.9,10.9-7.5,17.7-7.5
			c5.8,0,11.3,2.2,15.7,6v-33.7h9.2v79.7h-9.2v-4.2C230.4,234.1,224.7,236.4,218.8,236.4z M219.3,190.2c-10,0-17.2,8-17.2,19.1
			c0,12,6.4,19.5,16.7,19.5c7,0,14.1-5,16.4-11.6l1.4,0.2v-15.7l-1.3,0.2C232.5,194.8,226.3,190.2,219.3,190.2z"/>
	</g>
	<g>
		<path class="st2" d="M525.9,234.5h-9.2v-27.3c0-12.9-4.3-15.5-11.2-15.5c-7.4,0-14.6,7.7-14.6,15.5v27.3h-9.2v-50.1h9.2v3.9
			c4.2-3.7,9.4-5.8,15.1-5.8c7.5,0,19.9,3,19.9,23.1V234.5z"/>
	</g>
	<g>
		<path class="st2" d="M395.3,236.4c-14.8,0-25.1-11.1-25.1-26.9s10.3-26.9,25.2-26.9c9.6,0,17.5,4.9,22.2,13.7l1.7,3.2l-5.8,3.4
			l-3.3-1.1l-0.7-1.3c-3.5-6.1-7.8-8.8-14-8.8c-9.7,0-16,7-16,17.7c0,10.6,6.4,17.7,15.9,17.7c6.2,0,10.6-2.8,14.1-8.7l0.7-1.2
			l3.3-1.1l5.9,3.4l-1.8,3.3C412.9,231.6,404.9,236.4,395.3,236.4z"/>
	</g>
	<g>
		<path class="st2" d="M316.1,234.5h-9.2v-50.1h9.2v3.2c3.4-3.2,7.5-5.1,11.7-5.1c5.9,0,10.4,3.1,12.6,8.8l1.1,3l-4.9,3h-3.9l-1-2.4
			c-1.2-3-2.2-3.3-4.2-3.3c-2.2,0-5.1,1.8-7.3,4.8c-2.6,3.3-4.1,7.5-4.1,11.3V234.5z"/>
	</g>
	<g>
		<path class="st2" d="M448,236.4c-7.4,0-14.2-2.8-19.1-7.9c-4.8-5-7.5-11.8-7.5-19c0-15.4,11.5-26.9,26.6-26.9
			c15.2,0,26.6,11.6,26.6,26.9c0,7.3-2.7,14-7.5,19C462.2,233.6,455.4,236.4,448,236.4z M448,190.2c-11,0-19,8.1-19,19.3
			c0,11,8.2,19.3,19,19.3c10.8,0,19-8.3,19-19.3C467,198.3,459,190.2,448,190.2z"/>
	</g>
	<g>
		<ellipse class="st2" cx="788.5" cy="168.3" rx="5.7" ry="5.9"/>
	</g>
	<g>
		<path class="st2" d="M591.8,236.4c-8.5,0-13.7-5.7-13.7-15.3v-27.5h-8.8v-9.2h8.8v-15.2l4-2.5h5.2v17.7h15.2v9.2h-15.2v26.8
			c0,6.8,2.5,6.8,4.8,6.8c2.5,0,4-0.6,4.9-1.1l1.7-0.9l3.7,1.9l0.8,6.4l-2.7,1.1C598.4,235.5,595.8,236.4,591.8,236.4z"/>
	</g>
	<g>
		<path class="st2" d="M766.9,236.4c-8.5,0-13.6-5.7-13.6-15.3v-27.5h-8.9v-9.2h8.9v-15.2l4-2.5h5.2v17.7h15.2v9.2h-15.2v26.8
			c0,6.8,2.5,6.8,4.8,6.8c2.5,0,4-0.6,4.9-1.1l1.7-0.9l3.7,1.9l0.9,6.4l-2.7,1.1C773.5,235.5,770.9,236.4,766.9,236.4z"/>
	</g>
	<g>
		<path class="st2" d="M721.6,236.4c-14.8,0-25.1-11.1-25.1-26.9s10.3-26.9,25.2-26.9c9.6,0,17.5,4.9,22.2,13.7l1.7,3.2l-5.8,3.4
			l-3.3-1.1l-0.7-1.3c-3.5-6.1-7.8-8.8-14-8.8c-9.7,0-16,7-16,17.7c0,10.6,6.4,17.7,15.9,17.7c6.2,0,10.6-2.8,14.1-8.7l0.7-1.2
			l3.3-1.1l5.9,3.4l-1.8,3.3C739.1,231.6,731.2,236.4,721.6,236.4z"/>
	</g>
	<g>
		<path class="st2" d="M618,234.5h-9.2v-50.1h9.2v3.2c3.4-3.2,7.5-5.1,11.7-5.1c5.9,0,10.4,3.1,12.6,8.8l1.1,3l-4.9,3h-3.9l-1-2.4
			c-1.2-3-2.2-3.3-4.2-3.3c-2.2,0-5.1,1.8-7.3,4.8c-2.6,3.3-4.1,7.5-4.1,11.3V234.5z"/>
	</g>
	<g>
		<path class="st2" d="M665.6,236.4c-12.4,0-19.6-8.4-19.6-23.1v-28.9h9.2v27.3c0,13.6,5.2,15.5,10.8,15.5c7,0,14.2-7.8,14.2-15.5
			v-27.3h9.2v50.1h-9.2v-3.9C676.1,234.3,671,236.4,665.6,236.4z"/>
	</g>
	<g>
		<path class="st2" d="M552.1,236.4c-8.6,0-16-4.5-19.3-11.8l-1.4-3.1l5.7-3.5l3.5,1.2l0.7,1.4c2.2,4.4,5.9,6.6,11.1,6.6
			c4.9,0,8.9-2.6,8.9-5.7c0-2,0-4-9.5-7.6c-12-4.5-17.7-8.2-17.7-16.9c0-8.2,7.2-14.3,16.8-14.3c7.8,0,14.8,4.5,17.7,11.4l1.3,3.2
			l-5.2,2.8h-3.8l-1-2.3c-1.5-3.6-5.1-5.9-9.2-5.9c-4.1,0-7.4,2.3-7.4,5.1c0,2.2,0,3.6,11.9,8.4c9.7,3.9,15.4,7.8,15.4,16.1
			C570.5,229.8,562.4,236.4,552.1,236.4z"/>
	</g>
	<g>
		<rect x="783.9" y="184.4" class="st2" width="9.2" height="50.1"/>
	</g>
	<g>
		<path class="st2" d="M826.7,236.4c-7.4,0-14.2-2.8-19.1-7.9c-4.8-5-7.5-11.8-7.5-19c0-15.4,11.4-26.9,26.6-26.9
			c15.2,0,26.6,11.6,26.6,26.9c0,7.3-2.7,14-7.5,19C840.9,233.6,834.1,236.4,826.7,236.4z M826.7,190.2c-11,0-19,8.1-19,19.3
			c0,11,8.2,19.3,19,19.3c10.8,0,19-8.3,19-19.3C845.7,198.3,837.7,190.2,826.7,190.2z"/>
	</g>
	<g>
		<path class="st2" d="M904.6,234.5h-9.2v-27.3c0-12.9-4.3-15.5-11.2-15.5c-7.4,0-14.6,7.7-14.6,15.5v27.3h-9.2v-50.1h9.2v3.9
			c4.2-3.7,9.4-5.8,15.1-5.8c7.4,0,19.9,3,19.9,23.1V234.5z"/>
	</g>
</g>
</svg>
