<svg xmlns="http://www.w3.org/2000/svg" width="992.8" height="341.101" viewBox="0 0 992.8 341.101"><defs><style>.a{fill:#fff;}.b{fill:#abefd2;opacity:0.5;}.c{fill:#78a5b3;}</style></defs><path class="a" d="M42.5,0H950.3a42.464,42.464,0,0,1,42.5,42.5h0V298.6a42.464,42.464,0,0,1-42.5,42.5H42.5A42.379,42.379,0,0,1,0,298.7V42.5A42.464,42.464,0,0,1,42.5,0Z"/><circle class="b" cx="29.6" cy="29.6" r="29.6" transform="translate(42.7 221.3)"/><circle class="b" cx="38.1" cy="38.1" r="38.1" transform="translate(181.843 163.707) rotate(-80.782)"/><circle class="b" cx="46.5" cy="46.5" r="46.5" transform="translate(345.7 179.4)"/><circle class="b" cx="54.9" cy="54.9" r="54.9" transform="translate(520.4 211.4)"/><circle class="b" cx="63.4" cy="63.4" r="63.4" transform="translate(633 88.5)"/><circle class="b" cx="71.8" cy="71.8" r="71.8" transform="translate(806.5 27.5)"/><g transform="translate(0 -10)"><path class="c" d="M162.5,233.7h-6.7l-40-96.3h12.6l28.5,68.9c.7,1.8,1.4,3.5,2.2,5.2l2.2-5.2,28.5-68.8h12.6Z"/></g><g transform="translate(0 -10)"><path class="c" d="M223.2,234.3c-18.1,0-30.7-13.6-30.7-33,0-19.1,12.6-33,30.1-33,17.4,0,29.1,12.5,29.1,31v5.9H204.1c1.3,10.8,8.7,17.8,19.2,17.8,7.5,0,13.3-3.5,17.3-10.3l.9-1.5,4-1.3,7.2,4.2-2.1,4A30.646,30.646,0,0,1,223.2,234.3ZM204.6,194h35.2c-1.8-9.1-7.9-14.4-17.2-14.4C213.7,179.6,206.9,185.2,204.6,194Z"/></g><g transform="translate(0 -10)"><path class="c" d="M271.8,232H260.5V170.7h11.3v3.9a20.878,20.878,0,0,1,14.4-6.2c7.3,0,12.7,3.8,15.4,10.8l1.4,3.6-6,3.7h-4.8l-1.2-2.9c-1.5-3.6-2.7-4-5.2-4-2.7,0-6.2,2.2-9,5.8a23.6,23.6,0,0,0-5,13.8V232Z"/></g><g transform="translate(0 -10)"><rect class="c" width="11.3" height="97.6" transform="translate(306.1 134.4)"/></g><g transform="translate(0 -10)"><path class="c" d="M358.6,234.3a32,32,0,0,1-23.4-9.7,33.319,33.319,0,0,1-9.2-23.3c0-18.8,14-33,32.6-33s32.6,14.2,32.6,33a33.5,33.5,0,0,1-9.2,23.3A32.223,32.223,0,0,1,358.6,234.3Zm0-54.7c-12.1,0-21.2,9.3-21.2,21.7,0,12.2,9.3,21.7,21.2,21.7s21.2-9.5,21.2-21.7C379.8,188.9,370.7,179.6,358.6,179.6Z"/></g><g transform="translate(0 -10)"><path class="c" d="M413.1,232H401.8V181.9H391V170.6h10.8V158.9c0-6.4,0-26,17.1-26a26.765,26.765,0,0,1,10.2,2.2l3.2,1.4-1,8.4-5.1,1.7-1.8-.9a13.122,13.122,0,0,0-5.4-1.4c-2.1,0-5.7,0-5.8,14.5l-.1,11.8h17.2v11.3H413.1V232Z"/></g><g transform="translate(0 -10)"><path class="c" d="M443,258.2H431.7V170.6H443v5.1a30.6,30.6,0,0,1,19.9-7.4c17.3,0,29.5,13.3,29.5,32.2,0,20.1-11.9,33.7-29.7,33.7A30.97,30.97,0,0,1,443,227v31.2Zm19.6-78.6a19.1,19.1,0,0,0-13.7,5.9,22.146,22.146,0,0,0-6.2,16.4c.3,12,8.8,21.1,19.8,21.1,11.4,0,18.4-8.6,18.4-22.4C480.9,188,473.6,179.6,462.6,179.6Z"/></g><g transform="translate(0 -10)"><path class="c" d="M526.4,234.3c-18.1,0-30.7-13.6-30.7-33,0-19.1,12.6-33,30.1-33,17.4,0,29.1,12.5,29.1,31v5.9H507.3C508.6,216,516,223,526.5,223c7.5,0,13.3-3.5,17.3-10.3l.9-1.5,4-1.3,7.2,4.2-2.1,4A30.534,30.534,0,0,1,526.4,234.3ZM507.9,194h35.2c-1.8-9.1-7.9-14.4-17.2-14.4C516.9,179.6,510.1,185.2,507.9,194Z"/></g><g transform="translate(0 -10)"><path class="c" d="M575,232H563.7V170.7H575v3.9a20.878,20.878,0,0,1,14.4-6.2c7.3,0,12.7,3.8,15.4,10.8l1.4,3.6-6,3.7h-4.8l-1.2-2.9c-1.5-3.6-2.7-4-5.2-4-2.7,0-6.2,2.2-9,5.8a23.6,23.6,0,0,0-5,13.8V232Z"/></g><g transform="translate(0 -10)"><path class="c" d="M609.4,170.6V232h11.3V170.7H609.4Z"/><path class="c" d="M622,151a6.954,6.954,0,1,1-6.9-7.2A6.923,6.923,0,0,1,622,151Z"/></g><g transform="translate(0 -10)"><path class="c" d="M661.9,234.3a32,32,0,0,1-23.4-9.7,33.318,33.318,0,0,1-9.2-23.3c0-18.8,14-33,32.6-33s32.6,14.2,32.6,33a33.5,33.5,0,0,1-9.2,23.3A32.558,32.558,0,0,1,661.9,234.3Zm0-54.7c-12.1,0-21.2,9.3-21.2,21.7,0,12.2,9.3,21.7,21.2,21.7s21.2-9.5,21.2-21.7C683.1,188.9,674,179.6,661.9,179.6Z"/></g><g transform="translate(0 -10)"><path class="c" d="M727.5,234.3c-17.8,0-29.8-13.3-29.8-33.2,0-9.2,3.1-17.5,8.7-23.5a29.582,29.582,0,0,1,40.9-1.9V134.4h11.3V232H747.3v-5.2A31.391,31.391,0,0,1,727.5,234.3Zm.8-54.7c-11.4,0-19.3,8.8-19.3,21.5,0,13.5,7.1,21.9,18.6,21.9,10.9,0,19.6-9.2,19.9-20.8h0a23.152,23.152,0,0,0-6.4-16.9A17.636,17.636,0,0,0,728.3,179.6Z"/></g><g transform="translate(0 -10)"><path class="c" d="M798,234.3c-18.1,0-30.7-13.6-30.7-33,0-19.1,12.6-33,30.1-33,17.4,0,29.1,12.5,29.1,31v5.9H778.9c1.3,10.8,8.7,17.8,19.2,17.8,7.5,0,13.3-3.5,17.3-10.3l.9-1.5,4-1.3,7.2,4.2-2.1,4A30.534,30.534,0,0,1,798,234.3ZM779.5,194h35.2c-1.8-9.1-7.9-14.4-17.2-14.4C788.5,179.6,781.7,185.2,779.5,194Z"/></g><g transform="translate(0 -10)"><path class="c" d="M854.6,234.3c-10.5,0-19.5-5.5-23.6-14.4l-1.7-3.8,6.9-4.3,4.2,1.4.9,1.7c2.7,5.3,7.3,8,13.5,8,5.9,0,10.9-3.2,10.9-7,0-2.4,0-4.9-11.7-9.4-14.7-5.6-21.7-10.1-21.7-20.7,0-10,8.8-17.5,20.6-17.5a23.157,23.157,0,0,1,21.6,13.9l1.6,3.9-6.3,3.4h-4.6l-1.2-2.8a12.1,12.1,0,0,0-11.2-7.2c-5.1,0-9.1,2.8-9.1,6.3,0,2.7,0,4.4,14.5,10.2,11.9,4.7,18.8,9.5,18.8,19.7C877.1,226.2,867.2,234.3,854.6,234.3Z"/></g></svg>